<svg width="47" height="39" viewBox="0 0 47 39" fill="none" xmlns="http://www.w3.org/2000/svg">
<path d="M25 6L27.5 1C22.4169 1.14017 13.0367 1.60972 9.84945 1.94612C5.86536 2.36661 3.2551 5.52033 1.60652 9.40991C0.287648 12.5216 1.42334 23.1111 2.15605 28.0169C2.56819 33.3782 5.17845 34.6397 7.23919 36.0063C9.29992 37.3729 14.1083 37.3729 15.3447 37.3729H20.5V20.5531H14.1083V24.9683H16.8559V32.7474C16.5354 32.7825 16.224 32.8315 15.3447 32.7474C14.4655 32.6633 13.0092 32.1167 12.5971 31.8013C12.3681 31.6611 12.0476 31.3808 11.0859 30.645C10.0532 29.8548 9.16253 27.7015 9.16253 26.6502C9.16253 25.599 9.16254 14.7712 9.29992 13.9302C9.45702 12.9685 9.71206 11.8278 10.1242 10.7765C10.4539 9.93554 11.727 8.74413 12.3223 8.25355C12.7803 7.93818 14.1358 7.20231 15.8943 6.78182C17.6528 6.36132 22.115 6.24529 25 6Z" fill="#96B13C" stroke="#96B13C"/>
<path d="M21.9071 23.4414C22.5335 23.3624 23.045 23.7119 23.2559 23.9276C23.3942 24.0323 23.4291 24.4886 23.2907 24.8028C23.18 25.0542 23.2446 25.7454 23.2907 26.0596C23.3368 26.0945 23.5121 26.1852 23.8442 26.269C24.1762 26.3528 24.2592 26.5832 24.2592 26.6879C23.9825 26.6879 23.4014 26.7298 23.2907 26.8974C23.18 27.065 23.3368 27.7352 23.4291 28.0494C23.4752 28.1192 23.6228 28.2798 23.8442 28.3636C24.1209 28.4683 24.1209 28.6778 24.2592 28.7825C24.3699 28.8663 24.3976 29.0967 24.3976 29.2014C24.3976 29.3061 24.3699 29.5575 24.2592 29.725C24.1209 29.9345 23.9825 30.0392 23.8442 30.2487C23.7058 30.4581 23.7058 31.7149 23.8442 32.3432C23.9825 32.9716 24.536 33.6 26.7497 34.2284C28.5207 34.731 29.5169 36.9513 29.7937 37.9986H32.1458C41.9694 38.1033 44.0448 32.448 45.0133 30.7723C45.9818 29.0967 46.5353 17.053 45.8435 8.67471C45.1517 0.296465 32.4225 0.715377 30.4855 1.23902C28.9358 1.65793 25.9657 8.32562 24.6743 11.6071C24.8127 12.2006 24.868 13.974 23.9825 16.3199C22.8756 19.2522 21.0769 23.5461 21.9071 23.4414Z" fill="#AB070E"/>
<path d="M23.2907 23.965C23.1062 23.7556 22.5712 23.3576 21.9071 23.4414C21.0769 23.5461 22.8756 19.2522 23.9825 16.3199C24.868 13.974 24.8127 12.2006 24.6743 11.6071C25.9657 8.32562 28.9358 1.65793 30.4855 1.23902C32.4225 0.715377 45.1517 0.296465 45.8435 8.67471C46.5353 17.053 45.9818 29.0967 45.0133 30.7723C44.0448 32.448 41.9694 38.1033 32.1458 37.9986H29.7937C29.5169 36.9513 28.5207 34.731 26.7497 34.2284C24.536 33.6 23.9825 32.9716 23.8442 32.3432C23.7058 31.7149 23.7058 30.4581 23.8442 30.2487C23.9825 30.0392 24.1209 29.9345 24.2592 29.725C24.3699 29.5575 24.3976 29.3061 24.3976 29.2014C24.3976 29.0967 24.3699 28.8663 24.2592 28.7825C24.1209 28.6778 24.1209 28.4683 23.8442 28.3636C23.6228 28.2798 23.4752 28.1192 23.4291 28.0494C23.3368 27.7352 23.18 27.065 23.2907 26.8974C23.4014 26.7298 23.9825 26.6879 24.2592 26.6879C24.2592 26.5832 24.1762 26.3528 23.8442 26.269C23.5121 26.1852 23.3368 26.0945 23.2907 26.0596C23.2446 25.7454 23.18 25.0542 23.2907 24.8028C23.4291 24.4886 23.3942 24.0323 23.2559 23.9276" stroke="#AB070E"/>
<path d="M32.3918 30.9557C32.611 34.3198 30.7476 32.8671 29.7885 31.7203C28.2813 30.8601 26.089 21.3987 25.541 18.8183C24.9929 16.2379 27.3063 15.2849 27.8703 15.1866C28.4183 15.091 30.6106 14.9954 31.9807 14.5176C33.0769 14.1353 34.0816 12.638 34.447 11.9372C39.1604 5.66778 41.7089 9.45237 42.3939 12.1283C44.1752 18.6271 41.7089 24.9348 40.3387 30.1912C39.2426 34.3963 37.507 33.8547 36.7763 33.0583L36.0912 25.4126C36.0912 25.2534 35.8446 24.476 34.8581 22.6411C33.6249 20.3474 32.3918 21.9721 32.3918 22.6411C32.3918 23.3101 32.1177 26.7506 32.3918 30.9557Z" fill="white" stroke="white"/>
</svg>
